<?xml version="1.0" encoding="UTF-8"?>
<svg id="Layer_1" xmlns="http://www.w3.org/2000/svg" xmlns:xlink="http://www.w3.org/1999/xlink" version="1.1" viewBox="0 0 1858.41 427.3">
  <!-- Generator: Adobe Illustrator 29.5.1, SVG Export Plug-In . SVG Version: 2.1.0 Build 141)  -->
  <defs>
    <style>
      .st0 {
        clip-path: url(#clippath-1);
      }

      .st1 {
        clip-path: url(#clippath-3);
      }

      .st2 {
        clip-path: url(#clippath-4);
      }

      .st3 {
        clip-path: url(#clippath-2);
      }

      .st4 {
        clip-path: url(#clippath-5);
      }

      .st5 {
        fill: #fff;
      }

      .st6 {
        clip-path: url(#clippath);
      }
    </style>
    <clipPath id="clippath">
      <path class="st5" d="M437.28,279.84L301.31,44.23c-34.1-58.97-119.24-58.97-153.35,0L11.99,279.84c-32.73,56.67,5.26,126.89,68.78,132.44,1.73.22,3.6.43,5.41.43h2.52c4.76,0,9.23-1.08,13.34-3.03,16.01-6.35,27.25-21.84,27.25-40.09,0-15.14-7.86-28.48-19.75-36.19-14.78-23.43-22.57-51.69-20.55-81.83,4.47-67.19,58.83-121.69,126.02-126.31,79.59-5.55,145.92,57.31,145.92,135.75,0,19.9-4.25,38.79-11.97,55.8-4.4,9.81-10.89,18.46-17.3,26.96-5.48,7.21-8.72,16.15-8.72,25.88,0,12.76,5.33,23.72,13.84,31.58,5.7,6.99,14.35,11.54,24.08,11.54h5.19c3.82,0,7.57-.58,11.1-1.51,58.32-10.6,91.63-77.14,60.42-131.36h-.07l-.22-.07Z"/>
    </clipPath>
    <clipPath id="clippath-1">
      <path class="st5" d="M704.68,79.92l-138.49,332.79h67.91l35.54-85.94h119.17l35.54,85.94h67.91l-139.43-332.79h-48.16ZM690.26,268.81l37.78-102.09h.94l37.78,102.09h-76.49Z"/>
    </clipPath>
    <clipPath id="clippath-2">
      <path class="st5" d="M979.94,185.17h-.94v-22.06h-54.86v249.59h59.84v-140.3c0-14.85,0-57.53,54.43-59.84v-58.04h-4.97c-31,0-42.25,14.42-53.49,30.57v.07Z"/>
    </clipPath>
    <clipPath id="clippath-3">
      <path class="st5" d="M1176.47,209.47c36.91,0,50.83,23.86,58.04,36.41h67.48c-25.67-76.93-94.01-91.27-125.44-91.27-68.78,0-132.22,55.73-132.22,132.22,0,82.76,68.78,134.02,132.65,134.02,58.47,0,104.75-33.74,125.01-89.47h-67.48c-15.72,25.16-35.54,34.61-55.3,34.61-44.99,0-75.12-35.54-75.12-78.22,0-51.26,35.98-78.22,72.38-78.22v-.07Z"/>
    </clipPath>
    <clipPath id="clippath-4">
      <path class="st5" d="M1536.22,194.62h-.87c-1.8-3.6-31.94-40.01-82.76-40.01-69.28,0-125.01,55.3-125.01,131.79,0,83.2,57.1,134.46,121.41,134.46,31.51,0,68.35-16.65,87.23-39.15v31h54.86v-249.59h-54.86v31.5h0ZM1461.6,365.92c-42.75,0-74.19-34.61-74.19-76.92,0-37.35,25.16-79.59,74.19-79.59,35.54,0,72.89,26.1,72.89,77.79,0,46.28-31.51,78.73-72.89,78.73Z"/>
    </clipPath>
    <clipPath id="clippath-5">
      <path class="st5" d="M1835.34,189.21c-20.69-25.16-53.49-34.61-75.12-34.61-37.78,0-58.47,20.69-68.35,30.14v-21.56h-55.3v249.59h59.84v-118.74c0-21.12,0-47.22,10.81-62.51,10.81-16.65,30.14-22.06,40.95-22.06,50.39,0,50.39,59.33,50.39,80.02v123.21h59.84v-134.89c0-19.32,0-61.14-22.93-88.6h-.14Z"/>
    </clipPath>
  </defs>
  <g>
    <path class="st5" d="M437.28,279.84L301.31,44.23c-34.1-58.97-119.24-58.97-153.35,0L11.99,279.84c-32.73,56.67,5.26,126.89,68.78,132.44,1.73.22,3.6.43,5.41.43h2.52c4.76,0,9.23-1.08,13.34-3.03,16.01-6.34,27.25-21.84,27.25-40.08,0-10.67-3.89-20.47-10.38-27.97-9.88-11.54-18.89-23.94-23.57-38.43-5.26-16.08-7.57-33.52-6.42-51.62,4.47-67.19,58.83-121.7,126.02-126.31,79.59-5.55,145.92,57.32,145.92,135.75,0,23.07-5.77,44.7-15.86,63.73-3.1,5.84-6.78,11.39-11.17,16.29-6.78,7.64-10.96,17.59-10.96,28.62,0,12.76,5.33,23.72,13.84,31.58,5.7,6.99,14.35,11.54,24.08,11.54h5.19c3.82,0,7.57-.58,11.1-1.51,58.32-10.6,91.63-77.14,60.42-131.36h-.07l-.14-.07Z"/>
    <path class="st5" d="M437.28,279.84L301.31,44.23c-34.1-58.97-119.24-58.97-153.35,0L11.99,279.84c-32.73,56.67,5.26,126.89,68.78,132.44,1.73.22,3.6.43,5.41.43h2.52c4.76,0,9.23-1.08,13.34-3.03,16.01-6.34,27.25-21.84,27.25-40.08,0-10.67-3.89-20.47-10.38-27.97-9.88-11.54-18.89-23.94-23.57-38.43-5.26-16.08-7.57-33.52-6.42-51.62,4.47-67.19,58.83-121.7,126.02-126.31,79.59-5.55,145.92,57.32,145.92,135.75,0,23.07-5.77,44.7-15.86,63.73-3.1,5.84-6.78,11.39-11.17,16.29-6.78,7.64-10.96,17.59-10.96,28.62,0,12.76,5.33,23.72,13.84,31.58,5.7,6.99,14.35,11.54,24.08,11.54h5.19c3.82,0,7.57-.58,11.1-1.51,58.32-10.6,91.63-77.14,60.42-131.36h-.07l-.14-.07Z"/>
    <g>
      <path class="st5" d="M437.28,279.84L301.31,44.23c-34.1-58.97-119.24-58.97-153.35,0L11.99,279.84c-32.73,56.67,5.26,126.89,68.78,132.44,1.73.22,3.6.43,5.41.43h2.52c4.76,0,9.23-1.08,13.34-3.03,16.01-6.35,27.25-21.84,27.25-40.09,0-15.14-7.86-28.48-19.75-36.19-14.78-23.43-22.57-51.69-20.55-81.83,4.47-67.19,58.83-121.69,126.02-126.31,79.59-5.55,145.92,57.31,145.92,135.75,0,19.9-4.25,38.79-11.97,55.8-4.4,9.81-10.89,18.46-17.3,26.96-5.48,7.21-8.72,16.15-8.72,25.88,0,12.76,5.33,23.72,13.84,31.58,5.7,6.99,14.35,11.54,24.08,11.54h5.19c3.82,0,7.57-.58,11.1-1.51,58.32-10.6,91.63-77.14,60.42-131.36h-.07l-.22-.07Z"/>
      <g class="st6">
        <path class="st5" d="M224.67,124.9s116.22-21.12,212.68,154.93c96.46,176.06,24.3,143.83,24.3,143.83l-139.94,20.19-41.53-76.56,21.84-38.28,35.76-31.72,12.33-63.59-66.69-64.31-58.69-44.48h-.07Z"/>
      </g>
    </g>
    <path class="st5" d="M224.6,139.9c-65.75,0-119.1,53.35-119.1,119.1s53.35,119.1,119.1,119.1,119.1-53.35,119.1-119.1-53.35-119.1-119.1-119.1ZM224.6,357.26c0-49.67-40.3-90.05-90.05-90.05,49.67,0,90.05-40.23,90.05-90.05,0,49.67,40.3,90.05,90.05,90.05-49.67,0-90.05,40.3-90.05,90.05Z"/>
  </g>
  <g id="Arcan">
    <g id="A">
      <g>
        <path class="st5" d="M704.68,79.92l-138.49,332.79h67.91l35.54-85.94h119.17l35.54,85.94h67.91l-139.43-332.79h-48.16ZM690.26,268.81l37.78-102.09h.94l37.78,102.09h-76.49Z"/>
        <g class="st0">
          <polygon class="st5" points="1845.36 77.97 1832.46 77.97 1819.55 77.97 1806.65 77.97 1793.74 77.97 1780.84 77.97 1767.93 77.97 1755.03 77.97 1742.12 77.97 1729.22 77.97 1716.31 77.97 1703.41 77.97 1690.57 77.97 1677.67 77.97 1664.76 77.97 1651.86 77.97 1638.95 77.97 1626.05 77.97 1613.14 77.97 1600.24 77.97 1587.33 77.97 1574.43 77.97 1561.52 77.97 1548.62 77.97 1535.71 77.97 1522.81 77.97 1509.9 77.97 1497 77.97 1484.09 77.97 1471.19 77.97 1458.28 77.97 1445.38 77.97 1432.47 77.97 1419.57 77.97 1406.66 77.97 1393.76 77.97 1380.85 77.97 1368.02 77.97 1355.12 77.97 1342.21 77.97 1329.31 77.97 1316.4 77.97 1303.5 77.97 1290.59 77.97 1277.69 77.97 1264.78 77.97 1251.88 77.97 1238.97 77.97 1226.07 77.97 1213.16 77.97 1200.26 77.97 1187.35 77.97 1174.45 77.97 1161.54 77.97 1148.64 77.97 1135.73 77.97 1122.83 77.97 1109.92 77.97 1097.02 77.97 1084.11 77.97 1071.21 77.97 1058.3 77.97 1045.47 77.97 1032.57 77.97 1019.66 77.97 1006.76 77.97 993.85 77.97 980.95 77.97 968.04 77.97 955.14 77.97 942.23 77.97 929.33 77.97 916.42 77.97 903.52 77.97 890.61 77.97 877.71 77.97 864.8 77.97 851.9 77.97 838.99 77.97 826.09 77.97 813.18 77.97 800.28 77.97 787.37 77.97 774.47 77.97 761.56 77.97 748.66 77.97 735.82 77.97 722.92 77.97 710.01 77.97 697.11 77.97 684.2 77.97 671.3 77.97 658.39 77.97 645.49 77.97 632.58 77.97 619.68 77.97 606.77 77.97 593.87 77.97 580.96 77.97 568.06 77.97 555.16 77.97 542.25 77.97 529.35 77.97 516.44 77.97 516.44 459.64 529.35 459.64 542.25 459.64 555.16 459.64 568.06 459.64 580.96 459.64 593.87 459.64 606.77 459.64 619.68 459.64 632.58 459.64 645.49 459.64 658.39 459.64 671.3 459.64 684.2 459.64 697.11 459.64 710.01 459.64 722.92 459.64 735.82 459.64 748.66 459.64 761.56 459.64 774.47 459.64 787.37 459.64 800.28 459.64 813.18 459.64 826.09 459.64 838.99 459.64 851.9 459.64 864.8 459.64 877.71 459.64 890.61 459.64 903.52 459.64 916.42 459.64 929.33 459.64 942.23 459.64 955.14 459.64 968.04 459.64 980.95 459.64 993.85 459.64 1006.76 459.64 1019.66 459.64 1032.57 459.64 1045.47 459.64 1058.3 459.64 1071.21 459.64 1084.11 459.64 1097.02 459.64 1109.92 459.64 1122.83 459.64 1135.73 459.64 1148.64 459.64 1161.54 459.64 1174.45 459.64 1187.35 459.64 1200.26 459.64 1213.16 459.64 1226.07 459.64 1238.97 459.64 1251.88 459.64 1264.78 459.64 1277.69 459.64 1290.59 459.64 1303.5 459.64 1316.4 459.64 1329.31 459.64 1342.21 459.64 1355.12 459.64 1368.02 459.64 1380.85 459.64 1393.76 459.64 1406.66 459.64 1419.57 459.64 1432.47 459.64 1445.38 459.64 1458.28 459.64 1471.19 459.64 1484.09 459.64 1497 459.64 1509.9 459.64 1522.81 459.64 1535.71 459.64 1548.62 459.64 1561.52 459.64 1574.43 459.64 1587.33 459.64 1600.24 459.64 1613.14 459.64 1626.05 459.64 1638.95 459.64 1651.86 459.64 1664.76 459.64 1677.67 459.64 1690.57 459.64 1703.41 459.64 1716.31 459.64 1729.22 459.64 1742.12 459.64 1755.03 459.64 1767.93 459.64 1780.84 459.64 1793.74 459.64 1806.65 459.64 1819.55 459.64 1832.46 459.64 1845.36 459.64 1858.27 459.64 1858.27 77.97 1845.36 77.97"/>
        </g>
      </g>
    </g>
    <g id="r">
      <g>
        <path class="st5" d="M979.94,185.17h-.94v-22.06h-54.86v249.59h59.84v-140.3c0-14.85,0-57.53,54.43-59.84v-58.04h-4.97c-31,0-42.25,14.42-53.49,30.57v.07Z"/>
        <g class="st3">
          <polygon class="st5" points="1845.36 77.97 1832.46 77.97 1819.55 77.97 1806.65 77.97 1793.74 77.97 1780.84 77.97 1767.93 77.97 1755.03 77.97 1742.12 77.97 1729.22 77.97 1716.31 77.97 1703.41 77.97 1690.57 77.97 1677.67 77.97 1664.76 77.97 1651.86 77.97 1638.95 77.97 1626.05 77.97 1613.14 77.97 1600.24 77.97 1587.33 77.97 1574.43 77.97 1561.52 77.97 1548.62 77.97 1535.71 77.97 1522.81 77.97 1509.9 77.97 1497 77.97 1484.09 77.97 1471.19 77.97 1458.28 77.97 1445.38 77.97 1432.47 77.97 1419.57 77.97 1406.66 77.97 1393.76 77.97 1380.85 77.97 1368.02 77.97 1355.12 77.97 1342.21 77.97 1329.31 77.97 1316.4 77.97 1303.5 77.97 1290.59 77.97 1277.69 77.97 1264.78 77.97 1251.88 77.97 1238.97 77.97 1226.07 77.97 1213.16 77.97 1200.26 77.97 1187.35 77.97 1174.45 77.97 1161.54 77.97 1148.64 77.97 1135.73 77.97 1122.83 77.97 1109.92 77.97 1097.02 77.97 1084.11 77.97 1071.21 77.97 1058.3 77.97 1045.47 77.97 1032.57 77.97 1019.66 77.97 1006.76 77.97 993.85 77.97 980.95 77.97 968.04 77.97 955.14 77.97 942.23 77.97 929.33 77.97 916.42 77.97 903.52 77.97 890.61 77.97 877.71 77.97 864.8 77.97 851.9 77.97 838.99 77.97 826.09 77.97 813.18 77.97 800.28 77.97 787.37 77.97 774.47 77.97 761.56 77.97 748.66 77.97 735.82 77.97 722.92 77.97 710.01 77.97 697.11 77.97 684.2 77.97 671.3 77.97 658.39 77.97 645.49 77.97 632.58 77.97 619.68 77.97 606.77 77.97 593.87 77.97 580.96 77.97 568.06 77.97 555.16 77.97 542.25 77.97 529.35 77.97 516.44 77.97 516.44 459.64 529.35 459.64 542.25 459.64 555.16 459.64 568.06 459.64 580.96 459.64 593.87 459.64 606.77 459.64 619.68 459.64 632.58 459.64 645.49 459.64 658.39 459.64 671.3 459.64 684.2 459.64 697.11 459.64 710.01 459.64 722.92 459.64 735.82 459.64 748.66 459.64 761.56 459.64 774.47 459.64 787.37 459.64 800.28 459.64 813.18 459.64 826.09 459.64 838.99 459.64 851.9 459.64 864.8 459.64 877.71 459.64 890.61 459.64 903.52 459.64 916.42 459.64 929.33 459.64 942.23 459.64 955.14 459.64 968.04 459.64 980.95 459.64 993.85 459.64 1006.76 459.64 1019.66 459.64 1032.57 459.64 1045.47 459.64 1058.3 459.64 1071.21 459.64 1084.11 459.64 1097.02 459.64 1109.92 459.64 1122.83 459.64 1135.73 459.64 1148.64 459.64 1161.54 459.64 1174.45 459.64 1187.35 459.64 1200.26 459.64 1213.16 459.64 1226.07 459.64 1238.97 459.64 1251.88 459.64 1264.78 459.64 1277.69 459.64 1290.59 459.64 1303.5 459.64 1316.4 459.64 1329.31 459.64 1342.21 459.64 1355.12 459.64 1368.02 459.64 1380.85 459.64 1393.76 459.64 1406.66 459.64 1419.57 459.64 1432.47 459.64 1445.38 459.64 1458.28 459.64 1471.19 459.64 1484.09 459.64 1497 459.64 1509.9 459.64 1522.81 459.64 1535.71 459.64 1548.62 459.64 1561.52 459.64 1574.43 459.64 1587.33 459.64 1600.24 459.64 1613.14 459.64 1626.05 459.64 1638.95 459.64 1651.86 459.64 1664.76 459.64 1677.67 459.64 1690.57 459.64 1703.41 459.64 1716.31 459.64 1729.22 459.64 1742.12 459.64 1755.03 459.64 1767.93 459.64 1780.84 459.64 1793.74 459.64 1806.65 459.64 1819.55 459.64 1832.46 459.64 1845.36 459.64 1858.27 459.64 1858.27 77.97 1845.36 77.97"/>
        </g>
      </g>
    </g>
    <g id="c">
      <g>
        <path class="st5" d="M1176.47,209.47c36.91,0,50.83,23.86,58.04,36.41h67.48c-25.67-76.93-94.01-91.27-125.44-91.27-68.78,0-132.22,55.73-132.22,132.22,0,82.76,68.78,134.02,132.65,134.02,58.47,0,104.75-33.74,125.01-89.47h-67.48c-15.72,25.16-35.54,34.61-55.3,34.61-44.99,0-75.12-35.54-75.12-78.22,0-51.26,35.98-78.22,72.38-78.22v-.07Z"/>
        <g class="st1">
          <polygon class="st5" points="1845.36 77.97 1832.46 77.97 1819.55 77.97 1806.65 77.97 1793.74 77.97 1780.84 77.97 1767.93 77.97 1755.03 77.97 1742.12 77.97 1729.22 77.97 1716.31 77.97 1703.41 77.97 1690.57 77.97 1677.67 77.97 1664.76 77.97 1651.86 77.97 1638.95 77.97 1626.05 77.97 1613.14 77.97 1600.24 77.97 1587.33 77.97 1574.43 77.97 1561.52 77.97 1548.62 77.97 1535.71 77.97 1522.81 77.97 1509.9 77.97 1497 77.97 1484.09 77.97 1471.19 77.97 1458.28 77.97 1445.38 77.97 1432.47 77.97 1419.57 77.97 1406.66 77.97 1393.76 77.97 1380.85 77.97 1368.02 77.97 1355.12 77.97 1342.21 77.97 1329.31 77.97 1316.4 77.97 1303.5 77.97 1290.59 77.97 1277.69 77.97 1264.78 77.97 1251.88 77.97 1238.97 77.97 1226.07 77.97 1213.16 77.97 1200.26 77.97 1187.35 77.97 1174.45 77.97 1161.54 77.97 1148.64 77.97 1135.73 77.97 1122.83 77.97 1109.92 77.97 1097.02 77.97 1084.11 77.97 1071.21 77.97 1058.3 77.97 1045.47 77.97 1032.57 77.97 1019.66 77.97 1006.76 77.97 993.85 77.97 980.95 77.97 968.04 77.97 955.14 77.97 942.23 77.97 929.33 77.97 916.42 77.97 903.52 77.97 890.61 77.97 877.71 77.97 864.8 77.97 851.9 77.97 838.99 77.97 826.09 77.97 813.18 77.97 800.28 77.97 787.37 77.97 774.47 77.97 761.56 77.97 748.66 77.97 735.82 77.97 722.92 77.97 710.01 77.97 697.11 77.97 684.2 77.97 671.3 77.97 658.39 77.97 645.49 77.97 632.58 77.97 619.68 77.97 606.77 77.97 593.87 77.97 580.96 77.97 568.06 77.97 555.16 77.97 542.25 77.97 529.35 77.97 516.44 77.97 516.44 459.64 529.35 459.64 542.25 459.64 555.16 459.64 568.06 459.64 580.96 459.64 593.87 459.64 606.77 459.64 619.68 459.64 632.58 459.64 645.49 459.64 658.39 459.64 671.3 459.64 684.2 459.64 697.11 459.64 710.01 459.64 722.92 459.64 735.82 459.64 748.66 459.64 761.56 459.64 774.47 459.64 787.37 459.64 800.28 459.64 813.18 459.64 826.09 459.64 838.99 459.64 851.9 459.64 864.8 459.64 877.71 459.64 890.61 459.64 903.52 459.64 916.42 459.64 929.33 459.64 942.23 459.64 955.14 459.64 968.04 459.64 980.95 459.64 993.85 459.64 1006.76 459.64 1019.66 459.64 1032.57 459.64 1045.47 459.64 1058.3 459.64 1071.21 459.64 1084.11 459.64 1097.02 459.64 1109.92 459.64 1122.83 459.64 1135.73 459.64 1148.64 459.64 1161.54 459.64 1174.45 459.64 1187.35 459.64 1200.26 459.64 1213.16 459.64 1226.07 459.64 1238.97 459.64 1251.88 459.64 1264.78 459.64 1277.69 459.64 1290.59 459.64 1303.5 459.64 1316.4 459.64 1329.31 459.64 1342.21 459.64 1355.12 459.64 1368.02 459.64 1380.85 459.64 1393.76 459.64 1406.66 459.64 1419.57 459.64 1432.47 459.64 1445.38 459.64 1458.28 459.64 1471.19 459.64 1484.09 459.64 1497 459.64 1509.9 459.64 1522.81 459.64 1535.71 459.64 1548.62 459.64 1561.52 459.64 1574.43 459.64 1587.33 459.64 1600.24 459.64 1613.14 459.64 1626.05 459.64 1638.95 459.64 1651.86 459.64 1664.76 459.64 1677.67 459.64 1690.57 459.64 1703.41 459.64 1716.31 459.64 1729.22 459.64 1742.12 459.64 1755.03 459.64 1767.93 459.64 1780.84 459.64 1793.74 459.64 1806.65 459.64 1819.55 459.64 1832.46 459.64 1845.36 459.64 1858.27 459.64 1858.27 77.97 1845.36 77.97"/>
        </g>
      </g>
    </g>
    <g id="a">
      <g>
        <path class="st5" d="M1536.22,194.62h-.87c-1.8-3.6-31.94-40.01-82.76-40.01-69.28,0-125.01,55.3-125.01,131.79,0,83.2,57.1,134.46,121.41,134.46,31.51,0,68.35-16.65,87.23-39.15v31h54.86v-249.59h-54.86v31.5h0ZM1461.6,365.92c-42.75,0-74.19-34.61-74.19-76.92,0-37.35,25.16-79.59,74.19-79.59,35.54,0,72.89,26.1,72.89,77.79,0,46.28-31.51,78.73-72.89,78.73Z"/>
        <g class="st2">
          <polygon class="st5" points="1845.36 77.97 1832.46 77.97 1819.55 77.97 1806.65 77.97 1793.74 77.97 1780.84 77.97 1767.93 77.97 1755.03 77.97 1742.12 77.97 1729.22 77.97 1716.31 77.97 1703.41 77.97 1690.57 77.97 1677.67 77.97 1664.76 77.97 1651.86 77.97 1638.95 77.97 1626.05 77.97 1613.14 77.97 1600.24 77.97 1587.33 77.97 1574.43 77.97 1561.52 77.97 1548.62 77.97 1535.71 77.97 1522.81 77.97 1509.9 77.97 1497 77.97 1484.09 77.97 1471.19 77.97 1458.28 77.97 1445.38 77.97 1432.47 77.97 1419.57 77.97 1406.66 77.97 1393.76 77.97 1380.85 77.97 1368.02 77.97 1355.12 77.97 1342.21 77.97 1329.31 77.97 1316.4 77.97 1303.5 77.97 1290.59 77.97 1277.69 77.97 1264.78 77.97 1251.88 77.97 1238.97 77.97 1226.07 77.97 1213.16 77.97 1200.26 77.97 1187.35 77.97 1174.45 77.97 1161.54 77.97 1148.64 77.97 1135.73 77.97 1122.83 77.97 1109.92 77.97 1097.02 77.97 1084.11 77.97 1071.21 77.97 1058.3 77.97 1045.47 77.97 1032.57 77.97 1019.66 77.97 1006.76 77.97 993.85 77.97 980.95 77.97 968.04 77.97 955.14 77.97 942.23 77.97 929.33 77.97 916.42 77.97 903.52 77.97 890.61 77.97 877.71 77.97 864.8 77.97 851.9 77.97 838.99 77.97 826.09 77.97 813.18 77.97 800.28 77.97 787.37 77.97 774.47 77.97 761.56 77.97 748.66 77.97 735.82 77.97 722.92 77.97 710.01 77.97 697.11 77.97 684.2 77.97 671.3 77.97 658.39 77.97 645.49 77.97 632.58 77.97 619.68 77.97 606.77 77.97 593.87 77.97 580.96 77.97 568.06 77.97 555.16 77.97 542.25 77.97 529.35 77.97 516.44 77.97 516.44 459.64 529.35 459.64 542.25 459.64 555.16 459.64 568.06 459.64 580.96 459.64 593.87 459.64 606.77 459.64 619.68 459.64 632.58 459.64 645.49 459.64 658.39 459.64 671.3 459.64 684.2 459.64 697.11 459.64 710.01 459.64 722.92 459.64 735.82 459.64 748.66 459.64 761.56 459.64 774.47 459.64 787.37 459.64 800.28 459.64 813.18 459.64 826.09 459.64 838.99 459.64 851.9 459.64 864.8 459.64 877.71 459.64 890.61 459.64 903.52 459.64 916.42 459.64 929.33 459.64 942.23 459.64 955.14 459.64 968.04 459.64 980.95 459.64 993.85 459.64 1006.76 459.64 1019.66 459.64 1032.57 459.64 1045.47 459.64 1058.3 459.64 1071.21 459.64 1084.11 459.64 1097.02 459.64 1109.92 459.64 1122.83 459.64 1135.73 459.64 1148.64 459.64 1161.54 459.64 1174.45 459.64 1187.35 459.64 1200.26 459.64 1213.16 459.64 1226.07 459.64 1238.97 459.64 1251.88 459.64 1264.78 459.64 1277.69 459.64 1290.59 459.64 1303.5 459.64 1316.4 459.64 1329.31 459.64 1342.21 459.64 1355.12 459.64 1368.02 459.64 1380.85 459.64 1393.76 459.64 1406.66 459.64 1419.57 459.64 1432.47 459.64 1445.38 459.64 1458.28 459.64 1471.19 459.64 1484.09 459.64 1497 459.64 1509.9 459.64 1522.81 459.64 1535.71 459.64 1548.62 459.64 1561.52 459.64 1574.43 459.64 1587.33 459.64 1600.24 459.64 1613.14 459.64 1626.05 459.64 1638.95 459.64 1651.86 459.64 1664.76 459.64 1677.67 459.64 1690.57 459.64 1703.41 459.64 1716.31 459.64 1729.22 459.64 1742.12 459.64 1755.03 459.64 1767.93 459.64 1780.84 459.64 1793.74 459.64 1806.65 459.64 1819.55 459.64 1832.46 459.64 1845.36 459.64 1858.27 459.64 1858.27 77.97 1845.36 77.97"/>
        </g>
      </g>
    </g>
    <g id="n">
      <g>
        <path class="st5" d="M1835.34,189.21c-20.69-25.16-53.49-34.61-75.12-34.61-37.78,0-58.47,20.69-68.35,30.14v-21.56h-55.3v249.59h59.84v-118.74c0-21.12,0-47.22,10.81-62.51,10.81-16.65,30.14-22.06,40.95-22.06,50.39,0,50.39,59.33,50.39,80.02v123.21h59.84v-134.89c0-19.32,0-61.14-22.93-88.6h-.14Z"/>
        <g class="st4">
          <polygon class="st5" points="1845.36 77.97 1832.46 77.97 1819.55 77.97 1806.65 77.97 1793.74 77.97 1780.84 77.97 1767.93 77.97 1755.03 77.97 1742.12 77.97 1729.22 77.97 1716.31 77.97 1703.41 77.97 1690.57 77.97 1677.67 77.97 1664.76 77.97 1651.86 77.97 1638.95 77.97 1626.05 77.97 1613.14 77.97 1600.24 77.97 1587.33 77.97 1574.43 77.97 1561.52 77.97 1548.62 77.97 1535.71 77.97 1522.81 77.97 1509.9 77.97 1497 77.97 1484.09 77.97 1471.19 77.97 1458.28 77.97 1445.38 77.97 1432.47 77.97 1419.57 77.97 1406.66 77.97 1393.76 77.97 1380.85 77.97 1368.02 77.97 1355.12 77.97 1342.21 77.97 1329.31 77.97 1316.4 77.97 1303.5 77.97 1290.59 77.97 1277.69 77.97 1264.78 77.97 1251.88 77.97 1238.97 77.97 1226.07 77.97 1213.16 77.97 1200.26 77.97 1187.35 77.97 1174.45 77.97 1161.54 77.97 1148.64 77.97 1135.73 77.97 1122.83 77.97 1109.92 77.97 1097.02 77.97 1084.11 77.97 1071.21 77.97 1058.3 77.97 1045.47 77.97 1032.57 77.97 1019.66 77.97 1006.76 77.97 993.85 77.97 980.95 77.97 968.04 77.97 955.14 77.97 942.23 77.97 929.33 77.97 916.42 77.97 903.52 77.97 890.61 77.97 877.71 77.97 864.8 77.97 851.9 77.97 838.99 77.97 826.09 77.97 813.18 77.97 800.28 77.97 787.37 77.97 774.47 77.97 761.56 77.97 748.66 77.97 735.82 77.97 722.92 77.97 710.01 77.97 697.11 77.97 684.2 77.97 671.3 77.97 658.39 77.97 645.49 77.97 632.58 77.97 619.68 77.97 606.77 77.97 593.87 77.97 580.96 77.97 568.06 77.97 555.16 77.97 542.25 77.97 529.35 77.97 516.44 77.97 516.44 459.64 529.35 459.64 542.25 459.64 555.16 459.64 568.06 459.64 580.96 459.64 593.87 459.64 606.77 459.64 619.68 459.64 632.58 459.64 645.49 459.64 658.39 459.64 671.3 459.64 684.2 459.64 697.11 459.64 710.01 459.64 722.92 459.64 735.82 459.64 748.66 459.64 761.56 459.64 774.47 459.64 787.37 459.64 800.28 459.64 813.18 459.64 826.09 459.64 838.99 459.64 851.9 459.64 864.8 459.64 877.71 459.64 890.61 459.64 903.52 459.64 916.42 459.64 929.33 459.64 942.23 459.64 955.14 459.64 968.04 459.64 980.95 459.64 993.85 459.64 1006.76 459.64 1019.66 459.64 1032.57 459.64 1045.47 459.64 1058.3 459.64 1071.21 459.64 1084.11 459.64 1097.02 459.64 1109.92 459.64 1122.83 459.64 1135.73 459.64 1148.64 459.64 1161.54 459.64 1174.45 459.64 1187.35 459.64 1200.26 459.64 1213.16 459.64 1226.07 459.64 1238.97 459.64 1251.88 459.64 1264.78 459.64 1277.69 459.64 1290.59 459.64 1303.5 459.64 1316.4 459.64 1329.31 459.64 1342.21 459.64 1355.12 459.64 1368.02 459.64 1380.85 459.64 1393.76 459.64 1406.66 459.64 1419.57 459.64 1432.47 459.64 1445.38 459.64 1458.28 459.64 1471.19 459.64 1484.09 459.64 1497 459.64 1509.9 459.64 1522.81 459.64 1535.71 459.64 1548.62 459.64 1561.52 459.64 1574.43 459.64 1587.33 459.64 1600.24 459.64 1613.14 459.64 1626.05 459.64 1638.95 459.64 1651.86 459.64 1664.76 459.64 1677.67 459.64 1690.57 459.64 1703.41 459.64 1716.31 459.64 1729.22 459.64 1742.12 459.64 1755.03 459.64 1767.93 459.64 1780.84 459.64 1793.74 459.64 1806.65 459.64 1819.55 459.64 1832.46 459.64 1845.36 459.64 1858.27 459.64 1858.27 77.97 1845.36 77.97"/>
        </g>
      </g>
    </g>
  </g>
</svg>